# Blender 4.1.1
# www.blender.org
mtllib furby.mtl
o Cube
v -0.253278 -0.500000 -0.079725
v -0.000000 0.480224 -0.069450
v -0.000000 -0.500000 -0.145036
v -0.261984 -0.159072 -0.258964
v -0.000000 0.000000 -0.335433
v -0.309685 -0.500000 0.048460
v 0.000000 -0.500000 0.048460
v 0.000000 0.500000 0.048460
v -0.389432 -0.148085 0.048460
v -0.000000 0.326054 -0.221450
v -0.262855 0.147495 -0.258964
v -0.131627 0.400150 -0.113937
v -0.237101 0.400150 0.048460
v -0.361737 0.211219 0.048460
v -0.221013 -0.368386 -0.144603
v -0.305393 -0.500000 -0.310822
v -0.300385 0.460797 0.016818
v -0.495512 0.492439 -0.122935
v -0.455959 0.241938 0.016818
v -0.165880 -0.500000 0.201645
v 0.000000 0.480224 0.166370
v 0.000000 -0.500000 0.266955
v -0.261984 -0.159072 0.380884
v 0.000000 0.000000 0.415471
v 0.000000 0.326054 0.343370
v -0.262855 0.147495 0.380884
v -0.131627 0.400150 0.235857
v -0.450686 0.379055 0.035276
v -0.299419 0.295137 0.150591
v 0.253278 -0.500000 -0.079725
v 0.261984 -0.159072 -0.258964
v 0.309685 -0.500000 0.048460
v 0.389432 -0.148085 0.048460
v 0.262855 0.147495 -0.258964
v 0.131627 0.400150 -0.113937
v 0.237101 0.400150 0.048460
v 0.361737 0.211219 0.048460
v 0.221013 -0.368386 -0.144603
v 0.305393 -0.500000 -0.310822
v 0.300385 0.460797 0.016818
v 0.495512 0.492439 -0.122935
v 0.455959 0.241938 0.016818
v 0.165880 -0.500000 0.201645
v 0.261984 -0.159072 0.380884
v 0.262855 0.147495 0.380884
v 0.131627 0.400150 0.235857
v 0.450686 0.379055 0.035276
v 0.299419 0.295137 0.150591
vn -0.0000 -1.0000 -0.0000
vn -0.2797 -0.0008 -0.9601
vn -0.9238 -0.0026 -0.3829
vn -0.1833 0.6902 -0.7000
vn -0.0566 -0.3553 -0.9330
vn -0.8667 -0.3589 -0.3465
vn -0.7332 0.5542 -0.3941
vn -0.4071 0.8875 -0.2158
vn -0.2894 0.5851 -0.7575
vn -0.3718 -0.6266 0.6849
vn 0.9214 -0.3283 -0.2078
vn -0.1307 -0.0004 0.9914
vn -0.9520 0.0734 0.2972
vn -0.1113 0.7494 0.6527
vn -0.9150 0.0258 -0.4026
vn -0.6347 -0.4921 0.5958
vn -0.9045 0.2791 0.3225
vn -0.3999 0.8953 0.1962
vn -0.0073 0.2159 0.9764
vn -0.8368 -0.1896 -0.5136
vn 0.0463 -0.2844 0.9576
vn -0.3005 -0.5019 -0.8110
vn -0.0891 0.3287 -0.9402
vn -0.9157 -0.2075 0.3442
vn -0.3152 -0.5097 0.8005
vn -0.2894 0.5851 0.7575
vn 0.3194 -0.7251 -0.6101
vn 0.9621 -0.0003 -0.2728
vn 0.2624 -0.1731 -0.9493
vn 0.2794 -0.1986 -0.9394
vn -0.5044 0.3586 0.7855
vn -0.5799 -0.2463 0.7766
vn -0.1094 0.6241 0.7737
vn -0.6276 0.6063 0.4884
vn -0.6180 0.7050 0.3478
vn -0.9449 0.0728 -0.3190
vn -0.9338 -0.0027 0.3579
vn 0.2797 -0.0008 -0.9601
vn 0.9238 -0.0026 -0.3829
vn 0.1833 0.6902 -0.7000
vn 0.0566 -0.3553 -0.9330
vn 0.8667 -0.3589 -0.3465
vn 0.7332 0.5542 -0.3941
vn 0.4071 0.8875 -0.2158
vn 0.2894 0.5851 -0.7575
vn 0.3718 -0.6266 0.6849
vn -0.9214 -0.3283 -0.2078
vn 0.1307 -0.0004 0.9914
vn 0.9520 0.0734 0.2972
vn 0.1113 0.7494 0.6527
vn 0.9150 0.0258 -0.4026
vn 0.6347 -0.4921 0.5958
vn 0.9045 0.2791 0.3225
vn 0.3999 0.8953 0.1962
vn 0.0073 0.2159 0.9764
vn 0.8368 -0.1896 -0.5136
vn -0.0463 -0.2844 0.9576
vn 0.3005 -0.5019 -0.8110
vn 0.0891 0.3287 -0.9402
vn 0.9157 -0.2075 0.3442
vn 0.3152 -0.5097 0.8005
vn 0.2894 0.5851 0.7575
vn -0.3194 -0.7251 -0.6101
vn -0.9621 -0.0003 -0.2728
vn -0.2624 -0.1731 -0.9493
vn -0.2794 -0.1986 -0.9394
vn 0.5044 0.3586 0.7855
vn 0.5799 -0.2463 0.7766
vn 0.1094 0.6241 0.7737
vn 0.6276 0.6063 0.4884
vn 0.6180 0.7050 0.3478
vn 0.9449 0.0728 -0.3190
vn 0.9338 -0.0027 0.3579
vt 0.106813 0.222153
vt 0.106448 0.154638
vt 0.145361 0.166726
vt 0.159898 0.221866
vt 0.850000 0.412661
vt 0.850000 0.761530
vt 0.500000 0.592834
vt 0.827067 0.232440
vt 0.876419 0.235406
vt 0.828680 0.276392
vt 0.855194 0.311833
vt 0.868362 0.333615
vt 0.832119 0.323602
vt 0.500000 0.000056
vt 0.842469 0.201047
vt 0.880611 0.300341
vt 0.876843 0.275873
vt 0.885815 0.332642
vt 0.982196 0.073367
vt 0.870738 0.073312
vt 0.869104 0.117961
vt 0.764563 0.073053
vt 0.053728 0.222441
vt 0.067771 0.186200
vt 0.918720 0.238151
vt 0.952525 0.259453
vt 0.915197 0.269661
vt 0.907226 0.303654
vt 0.932306 0.305189
vt 0.902650 0.328054
vt 0.855969 0.183682
vt 0.882962 0.188155
vt 0.915032 0.190174
vt 0.889531 0.285595
vt 0.222316 0.053783
vt 0.126403 0.016186
vt 0.035569 0.054314
vt 0.939851 0.187796
vt 0.825071 0.168202
vt 0.500000 0.999944
vt 0.992034 0.899323
vt 0.887663 0.815536
vt 0.943525 0.813295
vt 0.989421 0.809829
vt 0.777807 0.973418
vt 0.836282 0.975859
vt 0.775121 0.892715
vt 0.836666 0.891825
vt 0.939686 0.975143
vt 0.990642 0.762761
vt 0.943216 0.762294
vt 0.889642 0.761102
vt 0.150000 0.412661
vt 0.150000 0.761530
vt 0.017804 0.073367
vt 0.130896 0.117961
vt 0.129262 0.073312
vt 0.235437 0.073053
vt 0.007966 0.899323
vt 0.056475 0.813295
vt 0.112337 0.815536
vt 0.010579 0.809829
vt 0.222193 0.973418
vt 0.224879 0.892715
vt 0.163718 0.975859
vt 0.163334 0.891825
vt 0.060314 0.975143
vt 0.009358 0.762761
vt 0.056784 0.762294
vt 0.110358 0.761102
s 0
usemtl furby
f 7/1/1 6/2/1 1/3/1 3/4/1
f 4/5/2 11/6/2 5/7/2
f 4/8/3 9/9/3 11/10/3
f 12/11/4 2/12/4 10/13/4
f 4/5/5 5/7/5 3/14/5
f 9/9/6 4/8/6 15/15/6
f 13/16/7 12/11/7 11/10/7 14/17/7
f 13/16/8 8/18/8 2/12/8 12/11/8
f 11/10/9 12/11/9 10/13/9
f 3/19/10 15/20/10 16/21/10
f 1/22/11 16/21/11 15/20/11
f 7/1/1 22/23/1 20/24/1 6/2/1
f 23/25/12 24/26/12 26/27/12
f 14/17/13 9/9/13 26/27/13
f 27/28/14 25/29/14 21/30/14
f 1/31/15 6/32/15 15/15/15
f 6/32/16 20/33/16 23/25/16
f 29/34/17 14/17/17 26/27/17
f 13/16/18 27/28/18 21/30/18 8/18/18
f 26/27/19 24/26/19 25/29/19
f 6/32/20 9/9/20 15/15/20
f 1/35/1 16/36/1 3/37/1
f 22/38/21 24/26/21 23/25/21
f 15/15/22 4/8/22 3/39/22
f 5/7/23 11/6/23 10/40/23
f 9/9/24 6/32/24 23/25/24
f 20/33/25 22/38/25 23/25/25
f 27/28/26 26/27/26 25/29/26
f 18/41/27 17/42/27 28/43/27
f 19/44/28 18/41/28 28/43/28
f 14/45/29 19/46/29 13/47/29
f 13/47/30 19/46/30 17/48/30
f 18/49/31 19/46/31 17/48/31
f 14/50/32 29/51/32 28/43/32 19/44/32
f 29/51/33 13/52/33 17/42/33 28/43/33
f 29/34/34 26/27/34 27/28/34
f 13/16/35 29/34/35 27/28/35
f 9/9/36 14/17/36 11/10/36
f 9/9/37 23/25/37 26/27/37
f 7/1/1 3/4/1 30/3/1 32/2/1
f 31/53/38 5/7/38 34/54/38
f 31/8/39 34/10/39 33/9/39
f 35/11/40 10/13/40 2/12/40
f 31/53/41 3/14/41 5/7/41
f 33/9/42 38/15/42 31/8/42
f 36/16/43 37/17/43 34/10/43 35/11/43
f 36/16/44 35/11/44 2/12/44 8/18/44
f 34/10/45 10/13/45 35/11/45
f 3/55/46 39/56/46 38/57/46
f 30/58/47 38/57/47 39/56/47
f 7/1/1 32/2/1 43/24/1 22/23/1
f 44/25/48 45/27/48 24/26/48
f 37/17/49 45/27/49 33/9/49
f 46/28/50 21/30/50 25/29/50
f 30/31/51 38/15/51 32/32/51
f 32/32/52 44/25/52 43/33/52
f 48/34/53 45/27/53 37/17/53
f 36/16/54 8/18/54 21/30/54 46/28/54
f 45/27/55 25/29/55 24/26/55
f 32/32/56 38/15/56 33/9/56
f 30/35/1 3/37/1 39/36/1
f 22/38/57 44/25/57 24/26/57
f 38/15/58 3/39/58 31/8/58
f 5/7/59 10/40/59 34/54/59
f 33/9/60 44/25/60 32/32/60
f 43/33/61 44/25/61 22/38/61
f 46/28/62 25/29/62 45/27/62
f 41/59/63 47/60/63 40/61/63
f 42/62/64 47/60/64 41/59/64
f 37/63/65 36/64/65 42/65/65
f 36/64/66 40/66/66 42/65/66
f 41/67/67 40/66/67 42/65/67
f 37/68/68 42/62/68 47/60/68 48/69/68
f 48/69/69 47/60/69 40/61/69 36/70/69
f 48/34/70 46/28/70 45/27/70
f 36/16/71 46/28/71 48/34/71
f 33/9/72 34/10/72 37/17/72
f 33/9/73 45/27/73 44/25/73
